<?xml version="1.0" encoding="utf-8"?>
<!-- Generator: Adobe Illustrator 24.1.2, SVG Export Plug-In . SVG Version: 6.00 Build 0)  -->
<svg version="1.1" id="레이어_1" xmlns="http://www.w3.org/2000/svg" xmlns:xlink="http://www.w3.org/1999/xlink" x="0px"
	 y="0px" viewBox="0 0 50 50" style="enable-background:new 0 0 50 50;" xml:space="preserve">
<style type="text/css">
	.st0{fill:#FFFFFF;}
</style>
<g>
	<path class="st0" d="M13,46.4c-3.6,0-6.5-3-6.5-6.7V13.9c0-3.7,2.9-6.7,6.5-6.7h24c3.6,0,6.5,3,6.5,6.7v25.9c0,3.7-2.9,6.7-6.5,6.7
		H13z"/>
	<path d="M37,8.7c2.8,0,5,2.3,5,5.2v25.9c0,2.9-2.2,5.2-5,5.2H13c-2.8,0-5-2.3-5-5.2V13.9c0-2.9,2.2-5.2,5-5.2H37 M37,5.6H13
		c-4.4,0-8,3.7-8,8.3v25.9c0,4.6,3.6,8.3,8,8.3h24c4.4,0,8-3.7,8-8.3V13.9C45,9.3,41.4,5.6,37,5.6L37,5.6z"/>
</g>
<g>
	<rect x="14.5" y="25.5" width="3" height="3"/>
	<path d="M17,26v2h-2v-2H17 M18,25h-4v4h4V25L18,25z"/>
</g>
<g>
	<rect x="23.5" y="25.5" width="3" height="3"/>
	<path d="M26,26v2h-2v-2H26 M27,25h-4v4h4V25L27,25z"/>
</g>
<g>
	<rect x="32.5" y="25.5" width="3" height="3"/>
	<path d="M35,26v2h-2v-2H35 M36,25h-4v4h4V25L36,25z"/>
</g>
<g>
	<rect x="14.5" y="34.5" width="3" height="3"/>
	<path d="M17,35v2h-2v-2H17 M18,34h-4v4h4V34L18,34z"/>
</g>
<g>
	<rect x="23.5" y="34.5" width="3" height="3"/>
	<path d="M26,35v2h-2v-2H26 M27,34h-4v4h4V34L27,34z"/>
</g>
<g>
	<rect x="32.5" y="34.5" width="3" height="3"/>
	<path d="M35,35v2h-2v-2H35 M36,34h-4v4h4V34L36,34z"/>
</g>
<g>
	<path class="st0" d="M19,16.2c-0.3,0-0.5-0.2-0.5-0.5V8.2c0-0.3,0.2-0.5,0.5-0.5h1c0.3,0,0.5,0.2,0.5,0.5v7.5
		c0,0.3-0.2,0.5-0.5,0.5H19z"/>
	<path d="M20,6h-1c-1.1,0-2,1-2,2.2v7.5c0,1.2,0.9,2.2,2,2.2h1c1.1,0,2-1,2-2.2V8.2C22,7,21.1,6,20,6L20,6z"/>
</g>
<g>
	<path class="st0" d="M30,16.2c-0.3,0-0.5-0.2-0.5-0.5V8.2c0-0.3,0.2-0.5,0.5-0.5h1c0.3,0,0.5,0.2,0.5,0.5v7.5
		c0,0.3-0.2,0.5-0.5,0.5H30z"/>
	<path d="M31,6h-1c-1.1,0-2,1-2,2.2v7.5c0,1.2,0.9,2.2,2,2.2h1c1.1,0,2-1,2-2.2V8.2C33,7,32.1,6,31,6L31,6z"/>
</g>
</svg>
